<?xml version="1.0" encoding="UTF-8"?>
<svg id="Layer_2" data-name="Layer 2" xmlns="http://www.w3.org/2000/svg" viewBox="0 0 700 439.8">
  <defs>
    <style>
      .cls-1 {
        fill: #231f20;
        stroke-width: 0px;
      }
    </style>
  </defs>
  <g id="Artboard_02" data-name="Artboard 02">
    <g id="Layer_18" data-name="Layer 18">
      <g>
        <path class="cls-1" d="M50.25,102.81H7.07V2.58h43.18c6.21.09,11.38.82,15.5,2.18,7.03,2.31,12.71,6.55,17.07,12.71,3.49,4.99,5.87,10.38,7.14,16.18,1.27,5.8,1.9,11.33,1.9,16.59,0,13.33-2.67,24.61-8.02,33.86-7.25,12.47-18.45,18.7-33.59,18.7ZM65.82,28.15c-3.22-5.44-9.59-8.16-19.11-8.16h-19.31v65.41h19.31c9.88,0,16.77-4.87,20.67-14.62,2.13-5.35,3.2-11.72,3.2-19.11,0-10.2-1.59-18.04-4.76-23.53Z"/>
        <path class="cls-1" d="M106,2.58h20.81v100.22h-20.81V2.58Z"/>
        <path class="cls-1" d="M207.79,100.36c-5.53,3.4-12.33,5.1-20.4,5.1-13.28,0-24.16-4.6-32.64-13.8-8.84-9.25-13.26-21.89-13.26-37.94s4.46-29.24,13.39-39.03c8.93-9.79,20.74-14.69,35.42-14.69,12.74,0,22.97,3.23,30.7,9.69,7.73,6.46,12.16,14.52,13.29,24.17h-20.6c-1.59-6.84-5.46-11.63-11.63-14.35-3.44-1.5-7.28-2.24-11.49-2.24-8.07,0-14.7,3.05-19.89,9.15-5.19,6.1-7.79,15.26-7.79,27.5s2.81,21.06,8.43,26.18c5.62,5.12,12.01,7.68,19.17,7.68s12.78-2.03,17.27-6.08c4.49-4.06,7.25-9.37,8.3-15.95h-23.19v-16.73h41.75v53.78h-13.87l-2.11-12.51c-4.03,4.76-7.66,8.12-10.88,10.06Z"/>
        <path class="cls-1" d="M253.01,2.58h20.81v100.22h-20.81V2.58Z"/>
        <path class="cls-1" d="M366.15,2.58v17.75h-29.99v82.48h-21.08V20.33h-30.12V2.58h81.19Z"/>
        <path class="cls-1" d="M426.8,82.2h-36.92l-6.94,20.6h-21.89L396.81,2.58h23.66l35.49,100.22h-22.71l-6.46-20.6ZM420.95,64.93l-12.51-39.44-12.92,39.44h25.43Z"/>
        <path class="cls-1" d="M468.68,2.58h20.94v82.2h49.64v18.02h-70.58V2.58Z"/>
        <path class="cls-1" d="M66.84,269.91v-44.74H27.67v44.74H6.94v-100.22h20.74v38.21h39.16v-38.21h20.81v100.22h-20.81Z"/>
        <path class="cls-1" d="M177.4,226.12h-48.68v25.77h55.48v18.02h-75.95v-100.22h73.5v17.75h-53.04v21.28h48.68v17.41Z"/>
        <path class="cls-1" d="M243.08,230.61h-21.62v39.3h-20.47v-100.22h49.16c7.03.14,12.43,1,16.22,2.58,3.78,1.59,6.99,3.92,9.62,7,2.18,2.54,3.9,5.35,5.17,8.43,1.27,3.08,1.9,6.6,1.9,10.54,0,4.76-1.2,9.44-3.6,14.04-2.4,4.6-6.37,7.85-11.9,9.76,4.62,1.86,7.9,4.5,9.83,7.92,1.93,3.42,2.89,8.65,2.89,15.67v6.73c0,4.58.18,7.68.54,9.32.54,2.58,1.81,4.49,3.81,5.71v2.52h-23.05c-.64-2.22-1.09-4.01-1.36-5.37-.54-2.81-.84-5.69-.88-8.64l-.14-9.32c-.09-6.39-1.26-10.65-3.5-12.78-2.24-2.13-6.45-3.2-12.61-3.2ZM255.79,212.39c4.17-1.9,6.26-5.67,6.26-11.29,0-6.07-2.02-10.15-6.05-12.24-2.27-1.18-5.67-1.77-10.2-1.77h-24.34v26.93h23.73c4.71,0,8.25-.54,10.61-1.63Z"/>
        <path class="cls-1" d="M299.45,169.69h20.81v100.22h-20.81v-100.22Z"/>
        <path class="cls-1" d="M412.59,169.69v17.75h-29.99v82.48h-21.08v-82.48h-30.12v-17.75h81.19Z"/>
        <path class="cls-1" d="M473.24,249.31h-36.92l-6.94,20.6h-21.89l35.76-100.22h23.66l35.49,100.22h-22.71l-6.46-20.6ZM467.39,232.04l-12.51-39.44-12.92,39.44h25.43Z"/>
        <path class="cls-1" d="M576.59,267.46c-5.53,3.4-12.33,5.1-20.4,5.1-13.28,0-24.16-4.6-32.64-13.8-8.84-9.25-13.26-21.89-13.26-37.94s4.46-29.24,13.39-39.03c8.93-9.79,20.74-14.69,35.42-14.69,12.74,0,22.97,3.23,30.7,9.69,7.73,6.46,12.16,14.52,13.29,24.17h-20.6c-1.59-6.84-5.46-11.63-11.63-14.35-3.45-1.5-7.28-2.24-11.49-2.24-8.07,0-14.7,3.05-19.89,9.15-5.19,6.1-7.79,15.26-7.79,27.5s2.81,21.06,8.43,26.18c5.62,5.12,12.01,7.68,19.17,7.68s12.78-2.03,17.27-6.08c4.49-4.06,7.25-9.37,8.3-15.95h-23.19v-16.73h41.75v53.78h-13.87l-2.11-12.51c-4.03,4.76-7.66,8.12-10.88,10.06Z"/>
        <path class="cls-1" d="M693.2,226.12h-48.68v25.77h55.48v18.02h-75.95v-100.22h73.5v17.75h-53.04v21.28h48.68v17.41Z"/>
        <path class="cls-1" d="M65.75,416.41H28.83l-6.94,20.6H0l35.76-100.22h23.66l35.49,100.22h-22.71l-6.46-20.6ZM59.9,399.14l-12.51-39.44-12.92,39.44h25.43Z"/>
        <path class="cls-1" d="M150.2,397.71h-21.62v39.3h-20.47v-100.22h49.16c7.03.14,12.43,1,16.22,2.58,3.78,1.59,6.99,3.92,9.62,7,2.18,2.54,3.9,5.35,5.17,8.43,1.27,3.08,1.9,6.6,1.9,10.54,0,4.76-1.2,9.44-3.6,14.04-2.4,4.6-6.37,7.85-11.9,9.76,4.62,1.86,7.9,4.5,9.83,7.92,1.93,3.42,2.89,8.65,2.89,15.67v6.73c0,4.58.18,7.68.54,9.32.54,2.58,1.81,4.49,3.81,5.71v2.52h-23.05c-.64-2.22-1.09-4.01-1.36-5.37-.54-2.81-.84-5.69-.88-8.64l-.14-9.32c-.09-6.39-1.26-10.65-3.5-12.78-2.24-2.13-6.45-3.2-12.61-3.2ZM162.91,379.49c4.17-1.9,6.26-5.67,6.26-11.29,0-6.07-2.02-10.15-6.05-12.24-2.27-1.18-5.67-1.77-10.2-1.77h-24.34v26.93h23.73c4.71,0,8.25-.54,10.61-1.63Z"/>
        <path class="cls-1" d="M278.91,429.53c-7.48,6.85-17.04,10.27-28.69,10.27-14.41,0-25.75-4.62-34-13.87-8.25-9.29-12.37-22.03-12.37-38.21,0-17.5,4.69-30.98,14.07-40.46,8.16-8.25,18.54-12.37,31.14-12.37,16.86,0,29.19,5.53,36.99,16.59,4.31,6.21,6.62,12.44,6.94,18.7h-20.94c-1.36-4.8-3.1-8.43-5.24-10.88-3.81-4.35-9.45-6.53-16.93-6.53s-13.62,3.07-18.02,9.21c-4.4,6.14-6.6,14.83-6.6,26.07s2.32,19.66,6.97,25.26c4.65,5.6,10.55,8.4,17.71,8.4s12.94-2.4,16.79-7.21c2.13-2.58,3.9-6.46,5.3-11.63h20.74c-1.81,10.93-6.44,19.81-13.87,26.65Z"/>
        <path class="cls-1" d="M368.53,437.01v-44.74h-39.17v44.74h-20.74v-100.22h20.74v38.21h39.17v-38.21h20.81v100.22h-20.81Z"/>
        <path class="cls-1" d="M407.69,336.79h20.81v100.22h-20.81v-100.22Z"/>
        <path class="cls-1" d="M440.6,336.79h22.37l21.76,76.09,21.96-76.09h21.76l-34.2,100.22h-19.79l-33.86-100.22Z"/>
        <path class="cls-1" d="M610.66,393.22h-48.68v25.77h55.48v18.02h-75.95v-100.22h73.5v17.75h-53.04v21.28h48.68v17.41Z"/>
      </g>
    </g>
  </g>
</svg>