<?xml version="1.0" encoding="UTF-8"?>
<svg id="Layer_2" data-name="Layer 2" xmlns="http://www.w3.org/2000/svg" viewBox="0 0 700 901.67">
  <defs>
    <style>
      .cls-1 {
        stroke-width: 0px;
      }
    </style>
  </defs>
  <g id="Artboard_02" data-name="Artboard 02">
    <g id="Layer_18" data-name="Layer 18">
      <g>
        <path class="cls-1" d="M700,410.16v12.55c-.11.48-.3.96-.33,1.45-.2,2.88-.33,5.76-.56,8.63-.3,3.81-.68,7.61-1.03,11.41-.51,5.6-1.03,11.2-1.54,16.8-.36,3.95-.69,7.9-1.03,11.85-.38,4.31-.77,8.62-1.13,12.92-.35,4.09-.67,8.19-1.01,12.28-.39,4.67-.8,9.34-1.19,14-.34,4.02-.66,8.05-1,12.07-.37,4.38-.75,8.76-1.11,13.14-.35,4.24-.68,8.48-1.03,12.72-.53,6.39-1.08,12.78-1.62,19.18-.33,3.95-.66,7.9-.99,11.85-.38,4.53-.77,9.05-1.15,13.57-.34,4.02-.67,8.05-1,12.07-.39,4.6-.78,9.19-1.17,13.79-.34,4.02-.67,8.05-1,12.07-.38,4.53-.77,9.05-1.14,13.58-.34,4.09-.67,8.19-1.01,12.28-.38,4.6-.78,9.19-1.17,13.79-.34,4.02-.67,8.05-1.01,12.07-.37,4.38-.76,8.76-1.13,13.14-.35,4.09-.68,8.19-1.03,12.28-.38,4.45-.77,8.9-1.16,13.36-.35,4.02-.68,8.04-1.03,12.07-.36,4.09-.74,8.18-1.07,12.28-.53,6.54-.92,13.09-1.77,19.59-.61,4.66-2.1,8.97-5.01,12.72-3.61,4.65-8.47,7.29-14.11,8.6-4.02.93-8.12,1.2-12.24,1.19-97.41-.11-194.81.13-292.22-.14-65.04-.18-130.07-.03-195.11-.04-30.35,0-60.71-.05-91.06-.04-4.78,0-9.51-.46-14.17-1.44-7.81-1.64-12.97-6.25-15.15-14.02-.29-1.04-.55-2.09-.78-3.15-1.81-8.18-2.56-16.52-3.47-24.82-.53-4.8-.99-9.61-1.48-14.41-.52-5.16-1.04-10.33-1.56-15.49-.48-4.8-.96-9.61-1.44-14.41-.53-5.23-1.07-10.47-1.59-15.7-.49-4.8-.96-9.61-1.45-14.42-.53-5.24-1.06-10.47-1.58-15.71-.48-4.81-.96-9.61-1.44-14.42-.52-5.24-1.06-10.47-1.58-15.71-.49-4.95-.97-9.9-1.47-14.85-.5-5.02-1.02-10.04-1.52-15.06-.5-5.02-.97-10.04-1.48-15.06-.5-5.02-1.04-10.04-1.54-15.06-.5-5.09-.96-10.19-1.46-15.28-.65-6.6-1.32-13.2-1.98-19.79-.77-7.67-1.56-15.34-2.33-23.02-.87-8.75-1.73-17.5-2.57-26.25-.09-.95-.24-1.86-.79-2.66v-8.22c.66-.58.71-1.38.81-2.17.14-1.07.26-2.15.49-3.2,1.51-6.98,5.49-11.95,12.13-14.69,1.13-.47,2.29-.86,3.47-1.17,4.48-1.19,9.05-1.7,13.69-1.7,11.9,0,23.79-.05,35.69-.07,13.41-.02,26.82-.06,40.23-.05,62.5.01,125.01.03,187.51.06,11.1,0,22.2.03,33.31.04.5,0,1.01.01,1.51.02,10.74,0,21.48.03,32.22,0,4.19-.01,8.34-.54,12.41-1.54,8.47-2.08,15.77-6.23,21.89-12.43,11.49-11.65,23.15-23.14,34.34-35.08,3.55-3.79,7.76-6.64,12.65-8.45,4.1-1.51,8.37-2.13,12.72-2.12,35.32.06,70.65-.17,105.97.22,7.42.08,14.85.06,22.28.06,21.92.02,43.83.03,65.75.05,5.91,0,11.82.03,17.73.06,3.97.02,7.93.16,11.85.82,3.27.56,6.52,1.26,9.53,2.71,6.96,3.36,10.65,9,11.44,16.62.07.63.25,1.25.38,1.88ZM559.69,695.48c.07-.25.14-.39.13-.52-.01-.36-.03-.72-.09-1.08-.59-3.28-1.57-6.44-3.22-9.36-4.18-7.43-10.35-12.5-18.42-15.15-7.97-2.62-16.12-2.9-24.34-1.37-7.82,1.46-14.49,5.09-19.96,10.87-6.93,7.31-10.3,16.19-11.41,26.05-.55,4.89-.54,9.78.01,14.67.65,5.71,2.04,11.21,4.81,16.28,4.32,7.92,10.47,13.94,18.94,17.26,7.58,2.97,15.43,3.33,23.37,1.6,5.06-1.11,9.41-3.53,13.08-7.18,1.07-1.07,2.09-2.19,3.14-3.28.28-.29.62-.51,1.02-.84.86,3.36,1.01,6.69,1.91,9.93,1.4.22,2.69.11,3.97.13,1.23.02,2.45.04,3.68,0,1.26-.04,2.56.2,3.78-.21.08-.35.16-.56.16-.77-.01-14.56-.03-29.12-.05-43.68,0-.07-.03-.14-.06-.2-.04-.06-.1-.1-.26-.27-.3-.02-.72-.07-1.13-.08-1.37-.01-2.74,0-4.11,0-9.01,0-18.02,0-27.03.01-.76,0-1.58-.23-2.27.26-.26,2.55-.19,12.04.09,13.68.65.31,1.38.2,2.08.2,4.9,0,9.8,0,14.71,0,.71,0,1.41.06,2.14.09.16,1.25-.21,2.27-.53,3.28-1.97,6.34-5.8,11.14-12.09,13.51-6.2,2.34-12.46,2.13-18.48-.76-4.6-2.22-8.3-5.44-10.42-10.23-1.17-2.65-1.89-5.44-2.28-8.31-.72-5.32-.68-10.64.06-15.95.53-3.8,1.52-7.49,3.39-10.88,2.92-5.28,7.17-9,13.02-10.66,4.25-1.21,8.56-1.12,12.82.01,6.24,1.67,10.53,5.45,12.42,11.75.12.41.3.8.44,1.18,1.72.26,14.73.28,17,.02ZM215.6,579.11c-.27,2.8-.2,12.14.11,13.75.65.29,1.38.19,2.08.19,5.05,0,10.09,0,15.14.01.61,0,1.29-.19,1.92.45-.28,1.13-.5,2.33-.89,3.48-2.02,5.97-5.71,10.54-11.67,12.85-6.18,2.4-12.43,2.28-18.48-.54-4.78-2.23-8.58-5.54-10.74-10.48-1.19-2.73-1.89-5.59-2.27-8.53-.66-5.03-.62-10.07.04-15.09.47-3.59,1.32-7.09,2.94-10.35,2.86-5.77,7.22-9.85,13.48-11.66,4.25-1.23,8.56-1.15,12.82-.03,6.24,1.64,10.54,5.42,12.48,11.7.14.46.34.91.49,1.29,3.12.3,15.44.21,17.09-.13-.05-.62-.04-1.26-.16-1.88-.61-3.21-1.61-6.28-3.24-9.12-3.98-6.97-9.76-11.86-17.29-14.62-7.76-2.84-15.79-3.29-23.87-2.02-11.91,1.87-20.88,8.21-27.02,18.56-3.44,5.81-5.16,12.17-5.89,18.83-.63,5.69-.51,11.37.39,17.03.83,5.24,2.35,10.26,5.07,14.84,4.52,7.61,10.68,13.38,19.1,16.44,7.3,2.65,14.79,2.96,22.35,1.37,4.98-1.05,9.33-3.36,12.98-6.93,1.18-1.16,2.3-2.39,3.46-3.57.28-.28.6-.52,1.02-.87.91,3.36,1.01,6.7,1.94,9.95,1.96.22,3.82.12,5.68.1,1.91-.03,3.84.25,5.87-.26,0-.81,0-1.52,0-2.23,0-4.83,0-9.66,0-14.49,0-8.58,0-17.16,0-25.74,0-.77.14-1.57-.16-2.28-2-.27-32.8-.27-34.76,0ZM239.36,753.22c.41-.76.23-1.57.23-2.34.01-9.3,0-18.59.02-27.89,0-.77-.13-1.57.25-2.43.72-.03,1.43-.09,2.13-.09,5.12,0,10.23-.04,15.35.01,1.8.02,3.6.16,5.38.4,1.13.15,2.25.5,3.32.91,1.84.7,3.17,2,3.84,3.87.41,1.15.72,2.34.95,3.54.5,2.56.41,5.16.44,7.76.03,3.24-.05,6.49.44,9.71.34,2.27.71,4.53,1.57,6.61,2.04.33,17.36.31,19.19-.04.04-.58.07-1.2.12-1.89-.26-.21-.49-.38-.7-.56-1.52-1.27-2.31-2.92-2.53-4.86-.15-1.36-.3-2.72-.33-4.09-.06-3.03.01-6.05-.07-9.08-.06-2.16-.18-4.32-.44-6.46-.67-5.63-3.4-9.86-8.62-12.33-.37-.17-.7-.42-1.17-.71.79-.37,1.44-.67,2.08-.98,3.5-1.69,6.11-4.27,7.8-7.78,1.65-3.42,2.62-6.99,2.68-10.81.13-7.89-3.01-14.25-9-19.26-2.24-1.87-4.84-3.1-7.67-3.82-3.87-1-7.81-1.28-11.78-1.28-8.22,0-16.43,0-24.65,0-4.68,0-9.37,0-14.05,0-.55,0-1.09.11-1.75.18,0,27.74,0,55.33,0,82.92,0,.27.1.55.16.86.32.07.59.19.86.19,5.12,0,10.23,0,15.35-.02.2,0,.39-.14.6-.21ZM59.57,623.97c.78.06,1.34.14,1.9.14,11.6,0,23.21.02,34.81,0,3.76,0,7.47-.51,11.06-1.71,6.93-2.31,12.14-6.75,15.97-12.89,2.61-4.19,4.45-8.72,5.58-13.52,2.35-9.98,2.43-19.97.19-29.99-1.12-4.99-3.15-9.56-6.1-13.72-3.81-5.36-8.88-8.99-15.19-10.81-3.48-1-7.05-1.46-10.67-1.48-7.21-.05-14.41-.03-21.62-.04-4.76,0-9.51,0-14.27,0-.55,0-1.16-.18-1.65.41v83.62ZM144.58,753.2c1.03.42,1.9.28,2.76.28,19.39,0,38.78,0,58.16,0,.5,0,1.01.03,1.51-.02.4-.04.8-.19,1.14-.27.06-.27.12-.41.12-.55,0-4.47.02-8.94,0-13.4,0-.26-.15-.53-.24-.81-.9-.29-1.77-.18-2.62-.18-13.62,0-27.24,0-40.87,0-.85,0-1.71.1-2.55-.15-.09-.27-.2-.47-.2-.66-.01-6.56-.02-13.12-.01-19.68,0-.28.1-.55.15-.82.88-.36,1.76-.22,2.61-.22,11.75-.01,23.5,0,35.24-.01.85,0,1.71.1,2.7-.23.13-2.39.08-4.75.05-7.11-.02-2.35.17-4.72-.15-7.18-.81-.04-1.51-.09-2.22-.1-4.04,0-8.07,0-12.11,0-7.93,0-15.86,0-23.78,0-.77,0-1.58.19-2.39-.29-.04-.39-.12-.81-.12-1.23,0-4.97,0-9.95,0-14.92,0-.4.13-.81.21-1.31.95-.02,1.81-.05,2.67-.05,12.76,0,25.51,0,38.27,0,.65,0,1.3.02,1.95-.02.41-.02.81-.14,1.25-.22.06-.38.14-.65.14-.93,0-4.32,0-8.65-.01-12.97,0-.2-.12-.4-.2-.66-.84-.26-1.7-.15-2.55-.15-18.74,0-37.48,0-56.22,0-.5,0-1.01-.03-1.51.01-.4.03-.8.15-1.2.23v83.65ZM76.75,753.27c.06-.4.16-.74.17-1.09.02-1.08.01-2.16.01-3.24,0-10.17,0-20.33,0-30.5,0-.77-.15-1.57.18-2.28,1.79-.28,26.35-.45,31.4-.21.34.02.68.12,1.02.18.35.85.21,1.65.21,2.43.01,10.74,0,21.49.02,32.23,0,.84-.18,1.72.32,2.66,1.41.02,2.84.04,4.27.05,1.37,0,2.74,0,4.11,0,1.44,0,2.88.02,4.33,0,1.41-.03,2.85.15,4.37-.19.03-.96.07-1.82.07-2.67,0-26.17,0-52.34,0-78.52,0-.5.03-1.01-.01-1.51-.03-.4-.14-.8-.21-1.18-.34-.05-.55-.1-.76-.1-5.12,0-10.24-.01-15.36,0-.34,0-.67.12-1.14.21,0,1.8,0,3.52,0,5.24v15.79c0,1.8.01,3.61,0,5.41-.02,1.71.09,3.43-.09,5.24-.55.06-.96.13-1.38.13-1.44.02-2.88,0-4.33,0-8.22,0-16.44,0-24.66-.01-.76,0-1.59.27-2.37-.41v-2.3c0-8.94,0-17.88,0-26.82,0-.77.17-1.58-.25-2.39-1.87-.22-3.74-.08-5.6-.1-1.95-.02-3.89-.04-5.84,0-1.85.04-3.72-.2-5.69.19-.02.92-.05,1.77-.05,2.62,0,26.17,0,52.34,0,78.52,0,.5-.03,1.01.02,1.51.04.41.17.8.3,1.32,5.34,0,10.59,0,15.85,0,.34,0,.69-.12,1.1-.2ZM594.95,684.51c.8-.42,1.68-.24,2.52-.24,12.76-.01,25.52,0,38.28,0,.72,0,1.44.03,2.16-.02.4-.03.8-.19,1.3-.31,0-.73,0-1.37,0-2.02-.03-4.03-.06-8.07-.1-12.1,0-.07-.02-.15-.06-.2-.04-.06-.11-.09-.33-.24-.62-.02-1.4-.06-2.18-.06-18.81,0-37.63,0-56.44,0-.43,0-.87-.03-1.3.01-.4.04-.8.15-1.28.24v2.47c0,26.17,0,52.33,0,78.5,0,.5-.02,1.01,0,1.51.02.41.11.83.17,1.23,1,.33,1.94.21,2.87.21,19.17,0,38.35,0,57.52,0,.58,0,1.15.01,1.73-.01.41-.02.82-.1,1.21-.15.09-.34.18-.55.18-.75,0-4.47,0-8.94,0-13.41,0-.26-.15-.52-.25-.85-.86-.02-1.65-.06-2.43-.06-9.88,0-19.75,0-29.63,0-4.04,0-8.07,0-12.11,0-.62,0-1.25-.09-1.9-.14-.06-.42-.14-.7-.14-.97,0-6.42-.01-12.83,0-19.25,0-.33.13-.67.22-1.12.94-.02,1.79-.06,2.65-.06,10.81,0,21.62,0,32.44,0,1.37,0,2.74,0,4.11-.01.41,0,.81-.11,1.33-.18.14-1.69.06-3.27.07-4.84.02-1.59.05-3.17,0-4.76-.05-1.56.25-3.14-.24-4.79-.91-.02-1.77-.04-2.62-.04-11.82,0-23.64,0-35.46-.01-.77,0-1.59.22-2.3-.27-.28-1.84-.27-15.53.01-17.29ZM475.22,753.25c-.13-.55-.18-.97-.32-1.37-9.74-27.49-19.48-54.98-29.19-82.39-1.8-.24-17.45-.28-19.83-.08-.11.16-.28.32-.35.51-9.84,27.54-19.67,55.08-29.49,82.62-.07.19-.03.42-.04.66.21.08.41.22.6.22,5.55.02,11.1.03,16.65.03.27,0,.55-.12.95-.21,1.91-5.62,3.82-11.27,5.74-16.93.48-.06.83-.14,1.18-.14,9.52,0,19.03,0,28.55,0,.41,0,.82.14,1.26.22,1.91,5.65,3.49,11.33,5.38,16.82,1.82.32,16.65.35,18.93.02ZM386.66,539.99c-.29.78-.56,1.44-.8,2.11-6.92,19.4-13.84,38.8-20.77,58.19-2.52,7.05-5.05,14.1-7.55,21.16-.27.77-.83,1.52-.54,2.45.25.07.46.19.66.19,5.48.01,10.95.02,16.43.01.28,0,.56-.1.95-.18,2.04-5.58,3.76-11.29,5.81-16.94.56-.06,1.05-.15,1.55-.15,9.3,0,18.59,0,27.89,0,.48,0,.97.1,1.53.16,1.8,5.69,3.57,11.31,5.34,16.91.4.09.68.2.95.2,5.76,0,11.53,0,17.29-.03.2,0,.39-.14.57-.21.02-.11.05-.18.05-.25,0-.14.02-.29-.02-.42-.1-.35-.22-.68-.34-1.02-9.68-27.28-19.36-54.56-29.04-81.84-.02-.07-.06-.14-.11-.19-.05-.05-.13-.06-.31-.15h-19.54ZM335.76,555.26c.97-.52,1.78-.36,2.56-.36,6.7-.01,13.41,0,20.11-.02.77,0,1.57.13,2.25-.21.3-2.16.28-12.78-.04-14.63-.8-.2-1.66-.11-2.51-.11-20.83,0-41.67,0-62.5,0-.5,0-1.01-.02-1.51,0-.41.03-.82.11-1.27.18-.04.6-.1,1.09-.09,1.59.01,4.18.04,8.36.07,12.54,0,.12.12.25.24.49.68.23,1.47.15,2.24.15,6.7,0,13.41,0,20.11,0,.78,0,1.57.04,2.31.06.44.96.27,1.83.27,2.68.01,21.05,0,42.1,0,63.15,0,.65-.03,1.3.01,1.95.02.41.15.81.25,1.33,1.52.02,2.95.04,4.38.05,1.44,0,2.88,0,4.33,0s2.88.02,4.32,0c1.41-.03,2.85.15,4.44-.2,0-4.63,0-9.15,0-13.68,0-4.61,0-9.23,0-13.84v-41.13ZM356.91,684.26c.33,1.1.23,1.97.23,2.82,0,20.98,0,41.96,0,62.95,0,.72-.03,1.44.02,2.16.03.4.19.8.27,1.14.27.06.41.12.55.12,5.26.01,10.53.02,15.79.01.33,0,.66-.18,1.11-.31v-2.86c0-20.91,0-41.82,0-62.73,0-.65-.02-1.3.01-1.95.02-.41.14-.81.24-1.32.88-.01,1.67-.03,2.45-.03,6.63,0,13.27,0,19.9-.01.78,0,1.59.18,2.39-.3.05-.23.17-.51.17-.78.01-4.33.01-8.65,0-12.98,0-.26-.15-.52-.27-.89h-2.62c-20.76,0-41.53,0-62.29,0-.58,0-1.16-.03-1.73.01-.4.03-.8.15-1.17.22-.33,4.12-.2,13.09.24,14.72,4.04,0,8.15,0,12.25,0,4.11,0,8.21,0,12.47,0ZM464.61,608.74v-2.82c0-20.9,0-41.8,0-62.7,0-.65.02-1.3-.01-1.95-.02-.41-.13-.81-.2-1.25-.53-.04-.96-.09-1.38-.09-5.19.02-10.37.04-15.56.07-.07,0-.14.03-.2.07-.06.04-.1.1-.15.16-.29,2.27-.43,70.93-.17,82.33,0,.42.07.84.12,1.28.9.41,1.77.27,2.62.27,17.94,0,35.89,0,53.83,0,.43,0,.87.02,1.3-.01.41-.03.81-.11,1.21-.17.08-.34.18-.54.18-.74,0-4.47,0-8.94,0-13.4,0-.26-.15-.52-.27-.9-2.36,0-4.66,0-6.95,0-2.23,0-4.47,0-6.7,0h-13.84c-2.23,0-4.47.02-6.7,0-2.29-.03-4.58.13-7.12-.14ZM142.7,539.93c-.3,2.13-.46,77.07-.22,82.88.01.35.11.69.18,1.08.4.08.75.2,1.09.2,5.05.01,10.09.01,15.14,0,.33,0,.66-.14.91-.2.11-.28.19-.41.2-.55.03-.5.04-1.01.04-1.51-.02-27.11-.03-54.21-.05-81.32,0-.07-.02-.14-.05-.2-.03-.06-.09-.11-.25-.28-.22-.02-.57-.1-.91-.1-5.33,0-10.66,0-16.08,0ZM265.94,540.15v2.89c0,25.94,0,51.88,0,77.82,0,.65-.03,1.3.02,1.94.03.41.17.8.25,1.19.39.05.68.11.96.11,4.97,0,9.94.01,14.91,0,.4,0,.8-.14,1.33-.25v-2.68c0-26.15,0-52.31,0-78.46,0-.5.03-1.01-.01-1.51-.03-.4-.16-.8-.23-1.16-2.93-.2-15.26-.14-17.23.12ZM305.08,753.26c.46.09.74.2,1.01.2,5.12,0,10.23.01,15.35,0,.33,0,.65-.19,1.09-.32v-2.86c0-25.94,0-51.89,0-77.83,0-.58.01-1.15-.01-1.73-.02-.41-.09-.82-.14-1.22-.33-.08-.54-.18-.74-.18-5.26,0-10.52,0-15.78,0-.26,0-.51.16-.78.25v83.69Z"/>
        <path class="cls-1" d="M351.3,0c7.66,4.13,15.33,8.23,22.98,12.38,70.44,38.29,140.87,76.59,211.31,114.89,16.9,9.19,33.79,18.38,50.69,27.57.82.45,1.63.91,2.4,1.34-.02.48-.29.55-.59.55-.72,0-1.44.02-2.16.02-190.4,0-380.8,0-571.2,0h-2.79c-.05-.84.56-.88.96-1.1,6-3.29,12-6.57,18.02-9.84,74.99-40.78,149.99-81.55,224.98-122.32,13.1-7.12,26.2-14.25,39.3-21.38,1.31-.71,2.63-1.41,3.95-2.11.72,0,1.44,0,2.16,0Z"/>
        <path class="cls-1" d="M276.45,901.67c-1.1-.62-2.34-.66-3.53-.87-9.23-1.66-16.88-5.99-22.72-13.4-3.57-4.54-5.97-9.67-7.45-15.23-1.8-6.81-2.33-13.76-1.98-20.78.25-5.06.93-10.04,2.39-14.9,2-6.67,5.27-12.61,10.24-17.54,5.81-5.78,12.77-9.28,20.91-10.33,8.03-1.03,15.98-.62,23.64,2.19,11.52,4.22,18.45,12.62,21.56,24.33.36,1.36.75,2.79.45,4.34-.35.07-.69.19-1.03.2-5.55.01-11.1,0-16.65,0-.21,0-.42-.06-.75-.1-.16-.33-.36-.69-.52-1.08-.55-1.41-1.03-2.85-1.64-4.22-2.2-4.93-5.93-8.04-11.18-9.34-3.84-.95-7.7-1.09-11.55-.19-4.47,1.05-7.95,3.61-10.66,7.27-2.31,3.12-3.75,6.63-4.67,10.37-.83,3.37-1.28,6.79-1.35,10.26-.07,3.6-.08,7.2.44,10.79.48,3.29,1.22,6.52,2.64,9.54,2.42,5.16,6.1,9.09,11.53,11.09,5.14,1.89,10.33,1.73,15.42-.18,3.49-1.31,6.11-3.74,8.03-6.93,1.12-1.86,1.91-3.87,2.6-5.92.23-.68.43-1.37.68-2.15.38-.09.78-.27,1.19-.27,5.41-.02,10.81-.01,16.22,0,.28,0,.55.08.75.11.46.53.29,1.04.2,1.51-1.98,9.9-6.61,18.22-14.75,24.39-4.26,3.23-9.1,5.19-14.35,6.18-1.12.21-2.28.29-3.31.87h-10.82Z"/>
        <path class="cls-1" d="M61.14,202.02c-.34-1.94-.36-24.87-.06-26.88.38-.07.79-.18,1.2-.2.65-.04,1.3-.01,1.95-.01,190.7,0,381.4,0,572.1,0h2.85c.74.66.55,1.35.55,1.97.02,4.25,0,8.51,0,12.76,0,3.32,0,6.63,0,9.95,0,.71-.06,1.42-.09,2.26-.51.06-.91.13-1.32.14-.65.02-1.3,0-1.95,0-190.7,0-381.4,0-572.1,0h-3.13Z"/>
        <path class="cls-1" d="M240.87,234.22c.4-.02.89-.07,1.38-.08,17.6-.26,62.68-.13,64.88.19.07.18.21.38.21.58.02,67.63.04,135.27.05,202.9,0,.42-.07.84-.12,1.37-.48.07-.89.14-1.3.17-.43.03-.86,0-1.3,0-20.4,0-40.81,0-61.21,0-.92,0-1.86.16-2.82-.24-.04-.36-.12-.71-.12-1.07.02-67.78.04-135.55.07-203.33,0-.12.13-.24.28-.5Z"/>
        <path class="cls-1" d="M87.4,439.09c-.04-.42-.13-.85-.13-1.27.02-67.7.05-135.39.08-203.09,0-.12.13-.24.27-.48.27-.03.61-.1.96-.1,21.69,0,43.38,0,65.18,0,.1.52.22.92.25,1.33.04.65.01,1.3.01,1.95,0,66.26,0,132.51,0,198.77v2.89c-.5.11-.9.24-1.3.27-.57.04-1.15.02-1.73.02-20.26,0-40.52,0-60.77,0-.92,0-1.87.2-2.81-.27Z"/>
        <path class="cls-1" d="M460.31,380.11c-1.47.24-2.9.07-4.32.02-7.41-.24-14.48,1.12-21.08,4.59-3.73,1.96-7.09,4.42-10.05,7.41-2.94,2.97-5.8,6.03-8.76,8.97-6.85,6.81-13.74,13.57-20.63,20.35-.4.39-.86.73-1.25,1.06-.54-.23-.43-.63-.44-.97-.02-.58,0-1.15,0-1.73,0-60.84,0-121.68,0-182.52,0-.92-.12-1.86.17-2.87.42-.07.83-.18,1.24-.21.5-.04,1.01-.01,1.51-.01,20.33,0,40.65,0,60.98,0,.85,0,1.72-.12,2.56.16.1.23.25.43.25.62.02,48.08.02,96.16.02,144.24,0,.27-.12.55-.2.88Z"/>
        <path class="cls-1" d="M613.65,379.93c-2.05.32-64.98.32-66.95.03-.06-.36-.17-.76-.19-1.16-.04-.57-.01-1.15-.01-1.73,0-46.5,0-93,0-139.49,0-.93.03-1.85.04-2.91.51-.07.91-.16,1.32-.18.43-.03.86,0,1.3,0,20.62,0,41.23,0,61.85,0h2.45c.09.52.2.93.23,1.34.04.57.01,1.15.01,1.73,0,46.5,0,93,0,139.49,0,.93-.02,1.85-.04,2.9Z"/>
        <path class="cls-1" d="M79.82,352.29c-1.3.1-2.66.24-4.01.3-2.89.14-5.74.56-8.51,1.39-6.27,1.89-10.99,5.6-13.57,11.74-.96,2.27-1.56,4.64-1.82,7.09-.61,5.74-.73,11.5-.89,17.27-.27,10.01-.57,20.03-.87,30.04-.09,2.84-.62,3.35-3.52,3.36-6.56.02-13.12.02-19.68,0-2.84,0-3.27-.41-3.27-3.26,0-13.05.02-26.1.04-39.14,0-.79,0-1.59,0-2.38,0-26.6,0-53.2,0-79.81,0-3.1.03-6.2.5-9.27.51-3.37,1.38-6.63,2.81-9.72,3.29-7.11,8.8-11.62,16.27-13.79,2.64-.76,5.33-1.18,8.07-1.38,7.2-.52,14.41-.33,21.61-.37,2.23-.01,4.46,0,6.79,0,.11.5.23.89.27,1.29.04.5.01,1.01.01,1.51,0,27.47,0,54.93,0,82.4,0,.85.15,1.73-.25,2.72Z"/>
        <path class="cls-1" d="M232.99,352.5c-2.27.23-69.7.19-71.6-.04-.05-.37-.12-.77-.14-1.18-.03-.43,0-.86,0-1.3,0-27.54,0-55.09,0-82.63,0-.85-.17-1.73.21-2.53,2.01-.38,52.1-.55,69.85-.24.56,0,1.12.09,1.66.14.29,1.79.31,85.6.02,87.78Z"/>
        <path class="cls-1" d="M467.89,324.93c.72-.05,1.28-.11,1.85-.12,19.93-.25,67.23-.12,69.47.19.07.38.2.79.2,1.2.01,8.79.01,17.58,0,26.37,0,.35-.05.7-.08,1.18-.44.08-.84.19-1.24.22-.5.04-1.01.01-1.51.01-21.98,0-43.95,0-65.93,0-.86,0-1.71-.02-2.64-.03-.09-.45-.22-.79-.22-1.13-.01-8.94-.01-17.87,0-26.81,0-.28.06-.56.12-1.09Z"/>
        <path class="cls-1" d="M386.29,324.99c.05.46.11.8.12,1.14.18,5.47.06,24.91-.17,26.94-.35.06-.75.16-1.15.18-.57.03-1.15.02-1.73.02-21.98,0-43.95,0-65.93,0-.92,0-1.86.16-2.8-.23-.05-.3-.13-.58-.13-.86,0-10.09,0-20.18.01-30.26,0-.2.1-.4.19-.74.71.22,1.4.38,2.06.64,4.62,1.79,9.44,2.44,14.36,2.76,7.13.47,14.26.31,21.39.35,10.45.05,20.89,0,31.34,0,.78,0,1.55.05,2.44.08Z"/>
        <path class="cls-1" d="M621,324.43c.94,0,1.66,0,2.37,0,16.51-.02,33.02-.04,49.53-.05.79,0,1.59,0,2.38.07.98.09,1.44.49,1.59,1.46.12.78.13,1.58.13,2.37,0,6.85,0,13.7,0,20.55,0,5.19,0,10.38,0,15.57,0,.72-.05,1.44-.15,2.15-.11.8-.6,1.31-1.4,1.43-.57.09-1.14.13-1.72.14-6.7,0-13.41.02-20.11,0-2.79,0-3.25-.48-3.27-3.28-.02-2.6,0-5.19,0-7.79,0-.71-.06-1.41-.09-2.17-.85-.33-1.64-.22-2.42-.22-8.07,0-16.15,0-24.22,0-.78,0-1.56-.03-2.34-.05-.5-.84-.33-1.65-.33-2.41-.01-8.44-.01-16.87,0-25.31,0-.71.05-1.42.08-2.45Z"/>
        <path class="cls-1" d="M375.88,215.2c-.37-2.45-.31-6.23.08-7.68,2.15-.34,88.4-.51,100.96-.2.42.01.83.08,1.2.12.37,1.81.38,5.73.06,7.58-.12.07-.24.21-.36.21-33.52.04-67.05.07-100.57.09-.42,0-.84-.08-1.37-.13Z"/>
        <path class="cls-1" d="M631.11,207.36c.4,1.71.44,5.54.09,7.78-.36.06-.76.15-1.16.18-.5.03-1.01.01-1.51.01-32.29,0-64.59,0-96.88,0-.85,0-1.72.12-2.51-.15-.41-1.58-.46-5.43-.09-7.68.36-.05.76-.14,1.17-.16.5-.03,1.01,0,1.51,0,32.29,0,64.59,0,96.88,0,.85,0,1.7.03,2.51.04Z"/>
        <path class="cls-1" d="M325.28,207.47c.12,2.54.05,4.95.04,7.47-.53.07-.87.15-1.22.15-33.78,0-67.55,0-101.29,0-.46-1.6-.5-5.52-.1-7.67.23-.04.5-.13.77-.14,4.22-.2,99.9-.05,101.79.18Z"/>
        <path class="cls-1" d="M69.55,207.4h102.16c.67,1.24.28,2.56.33,3.82.06,1.21.08,2.43-.09,3.73-.5.08-.91.17-1.32.2-.5.03-1.01.01-1.51.01-32.28,0-64.57,0-96.85,0-.91,0-1.86.16-2.72-.19-.33-1.77-.34-5.45,0-7.56Z"/>
        <path class="cls-1" d="M618.69,221.01c.34,1.89.37,5.39.09,7.68-.36.06-.75.15-1.16.18-.43.03-.86,0-1.3,0-24.13,0-48.26,0-72.39,0h-2.4c-.58-1.33-.24-2.63-.3-3.9-.06-1.21-.01-2.43-.01-3.75.52-.1.92-.22,1.32-.25.57-.04,1.15-.01,1.73-.01,23.91,0,47.83,0,71.74,0,.86,0,1.71.03,2.68.04Z"/>
        <path class="cls-1" d="M388.16,228.65c-.12-2.54-.16-4.96.01-7.5.61-.05,1.09-.11,1.58-.12,16.57-.29,73.65-.14,75.82.19.37,1.51.41,5.39.04,7.57-.45.04-.93.11-1.41.12-17.79.31-73.72.14-76.04-.25Z"/>
        <path class="cls-1" d="M82.21,221.15c2.19-.27,75.34-.24,77,.01.39,1.48.43,5.3.06,7.58-.37.04-.78.11-1.19.13-.5.02-1.01,0-1.51,0-23.91,0-47.82,0-71.73,0h-2.54c-.4-1.7-.43-5.59-.09-7.73Z"/>
        <path class="cls-1" d="M312.75,221.24c0,2.29,0,4.45,0,6.61,0,.27-.07.55-.13.94-.55.04-1.03.11-1.51.12-18.58.3-73.44.15-75.76-.24-.2-2.46-.16-4.94-.01-7.54.51-.06.92-.13,1.33-.15.43-.02.86,0,1.3,0,24,0,48.01,0,72.01,0,.85,0,1.72-.13,2.79.27Z"/>
        <path class="cls-1" d="M173.91,864.2v17.54c0,2.81.02,5.62,0,8.44-.02,2.87.09,5.74-.07,8.48-.17.18-.21.24-.27.28-.06.04-.13.07-.2.07-5.41.02-10.81.05-16.22.06-.43,0-.86-.04-1.4-.08-.08-.5-.19-.98-.22-1.46-.04-.5-.01-1.01-.01-1.51,0-27.69,0-55.37,0-83.06,0-.93.03-1.86.05-2.89.6-.08,1.08-.2,1.55-.21,2.31-.02,4.61-.01,6.92-.01,10.67,0,21.34,0,32.01,0,2.38,0,4.76.05,7.13.13,2.45.08,4.88.47,7.26,1.05,6.69,1.64,11.57,5.67,14.93,11.57,4.14,7.25,4.3,14.78,1.36,22.48-1.92,5.03-5.23,8.73-10.26,10.8-.33.14-.63.33-1.09.57.66.37,1.21.71,1.77,1,4.53,2.33,7.28,5.97,8.24,10.99.52,2.7.81,5.41.81,8.16,0,3.32-.01,6.63.04,9.95.02,1.44.18,2.87.33,4.31.24,2.33,1.22,4.27,3.14,5.69.11.08.17.22.31.39v1.93c-1.75.39-3.47.15-5.18.19-1.73.04-3.46,0-5.19,0s-3.32,0-4.97,0c-1.72,0-3.45-.02-5.2-.03-1-2.84-1.64-5.65-1.82-8.53-.22-3.67-.28-7.34-.39-11.02-.06-2.16.01-4.33-.45-6.46-.15-.7-.29-1.41-.47-2.11-.83-3.25-2.94-5.19-6.15-6-2.11-.53-4.26-.79-6.42-.81-6.13-.06-12.26-.02-18.38-.02-.42,0-.83.06-1.52.11ZM173.98,849.12c.47.07.75.15,1.02.15,7.14,0,14.27.06,21.41-.03,2.44-.03,4.89-.3,7.22-1.17,2.91-1.09,4.85-3.1,5.67-6.07.91-3.27.78-6.57-.33-9.79-1.01-2.92-3.03-4.86-5.96-5.82-1.72-.56-3.49-.89-5.31-.89-7.5-.02-14.99-.03-22.49-.03-.4,0-.8.14-1.24.22v23.43Z"/>
        <path class="cls-1" d="M606.45,809.99v15.47c-.43.1-.83.25-1.23.28-.65.05-1.3.02-1.95.02-13.7,0-27.39,0-41.09,0-.85,0-1.7.04-2.63.06-.38,2.12-.15,4.13-.19,6.13-.04,2.09,0,4.18,0,6.27v5.99c.87.52,1.68.32,2.45.32,7.86.02,15.71.01,23.57.01,4.97,0,9.95,0,14.92,0,.7,0,1.41.06,1.95.08.2.19.27.23.3.29.03.06.05.14.05.21.02,4.68.03,9.37.04,14.05,0,.21-.07.41-.11.63-.65.5-1.39.29-2.08.29-7.06.02-14.13,0-21.19,0-5.84,0-11.68,0-17.52,0-.71,0-1.41.05-2.02.07-.15.16-.2.21-.24.28-.03.06-.05.14-.05.21-.02,6.92-.04,13.84-.05,20.76,0,.29.01.58.05.86.02.13.11.26.21.5,1.93.34,3.94.12,5.94.16,2.09.04,4.18,0,6.27,0h30.49c2.01,0,4.03,0,6.13,0,.1.52.24.92.24,1.33.02,4.47.01,8.94,0,13.41,0,.35-.05.7-.09,1.17-.45.07-.85.16-1.26.18-.5.03-1.01,0-1.51,0-20.69,0-41.38,0-62.07,0h-2.48c-.11-.47-.25-.86-.28-1.26-.05-.57-.02-1.15-.02-1.73,0-27.75,0-55.51,0-83.26,0-.92-.19-1.87.23-2.75,2.01-.33,44.31-.48,63.35-.21.56,0,1.12.09,1.86.15Z"/>
        <path class="cls-1" d="M352.53,859.29c-.02,3.52,0,6.76,0,9.99,0,3.32,0,6.63,0,9.95v19.54c-.41.11-.73.27-1.06.28-5.55.01-11.1.01-16.65,0-.2,0-.41-.09-.75-.16-.05-.4-.12-.81-.14-1.21-.02-.5,0-1.01,0-1.51,0-27.82,0-55.65,0-83.47,0-.85.04-1.7.06-2.39.19-.2.24-.27.29-.31.06-.04.13-.06.2-.06,5.55-.03,11.1-.05,16.64-.07.35,0,.71.07,1.05.1.6.73.34,1.56.34,2.32.02,8.51.01,17.01.01,25.52v5.56c.79.63,1.62.37,2.37.37,9.3.02,18.6.01,27.89.01.94,0,1.87,0,2.81,0,.42,0,.85-.06,1.28-.09.49-.77.28-1.59.28-2.35.02-9.59.01-19.17.01-28.76v-2.4c.39-.11.66-.26.92-.26,5.55-.02,11.1-.02,16.65-.01.27,0,.55.09.73.13.12.14.18.19.21.26.03.06.06.13.06.2.02,29.05.04,58.1.05,87.14,0,.36-.05.72-.09,1.07,0,.06-.09.11-.13.16-1.59.3-15.38.38-18.09.1-.49-.54-.3-1.21-.3-1.83-.02-5.12,0-10.24,0-15.35,0-6.56,0-13.12,0-19.68v-2.5c-.55-.1-1.02-.25-1.49-.25-3.53-.02-7.06-.01-10.6-.01-6.63,0-13.26,0-19.89,0h-2.67Z"/>
        <path class="cls-1" d="M91.24,809.99c.42-.05.76-.14,1.11-.14,6.62,0,13.25,0,19.66,0,.26.19.33.22.37.27.05.05.1.11.12.18.22.53.45,1.06.64,1.6,10.16,28.7,20.32,57.41,30.48,86.11.07.2.08.42.11.63,0,.07-.03.14-.04.21-1.57.26-16.46.35-19.83.11-.65-.55-.7-1.4-.93-2.13-1.48-4.66-2.93-9.34-4.4-14.01-.19-.61-.41-1.21-.62-1.84-.34-.07-.61-.17-.89-.17-10.52,0-21.04,0-31.64,0-.23.49-.48.91-.64,1.37-1.7,4.97-3.38,9.95-5.06,14.93-.21.61-.43,1.22-.66,1.88h-19.22c-.31-.93.2-1.63.45-2.35,3.37-9.5,6.78-18.98,10.17-28.47,6.68-18.71,13.35-37.43,20.02-56.14.24-.67.52-1.33.79-2.03ZM112.58,865.28c-.28-1.02-.46-1.7-.67-2.38-1.91-6.03-3.84-12.06-5.75-18.09-1.35-4.25-2.69-8.5-4.04-12.75-.1-.32-.16-.72-.67-.6-1.56,3.9-10.65,31.95-10.89,33.68.26.05.53.13.8.13,6.98,0,13.96,0,21.23,0Z"/>
        <path class="cls-1" d="M451.38,810.05c2.15-.31,18.12-.28,19.95.03,1.66,5.43,3.16,10.98,4.75,16.5,1.59,5.53,3.17,11.07,4.76,16.61,1.58,5.54,3.15,11.08,4.75,16.61,1.59,5.5,3.12,11.01,4.73,16.48.27-.05.35-.04.41-.08.06-.03.12-.1.14-.16.08-.2.14-.4.2-.61,6.29-21.71,12.59-43.42,18.88-65.13.02-.06.09-.11.23-.3,2.01-.36,4.17-.1,6.3-.15,2.09-.05,4.18-.03,6.27,0,2.15.02,4.31-.1,6.55.1-.06.38-.05.66-.14.92-10,29.37-20.01,58.73-30.03,88.12h-17.5c-.16-.11-.22-.15-.27-.2-.05-.05-.1-.11-.12-.17-9.85-29.12-19.71-58.24-29.56-87.36-.11-.33-.19-.68-.33-1.19Z"/>
        <path class="cls-1" d="M440.41,899.04c-5.97,0-11.81,0-17.64,0-.2,0-.39-.12-.69-.21-.04-.34-.11-.68-.12-1.03-.23-6.61-.08-85.63.18-87.72.28-.07.61-.21.94-.21,5.48-.01,10.96-.01,16.44,0,.28,0,.56.08.92.14.07.43.18.84.21,1.25.04.57.01,1.15.01,1.73,0,27.69,0,55.37,0,83.06,0,.93.12,1.87-.24,3Z"/>
        <path class="cls-1" d="M239.66,706.36v-22.12c.41-.09.8-.25,1.2-.25,7.06,0,14.11,0,21.17.06,1.36.01,2.74.21,4.06.52,3.59.85,5.99,3.04,6.94,6.65.74,2.83.81,5.7,0,8.53-.78,2.75-2.59,4.59-5.25,5.6-2.05.78-4.19,1.09-6.35,1.11-6.91.06-13.83.03-20.74.02-.27,0-.55-.07-1.03-.13Z"/>
        <path class="cls-1" d="M76.74,609.33c-.07-.39-.15-.67-.15-.94,0-17.79,0-35.57,0-53.47.46-.1.86-.25,1.26-.26,5.62-.01,11.24-.03,16.85.02,2.75.03,5.43.57,7.99,1.63,3.06,1.27,5.31,3.38,6.75,6.37,1.29,2.68,2.11,5.51,2.57,8.44.99,6.3,1.11,12.62.05,18.93-.65,3.86-1.81,7.56-3.84,10.94-2.54,4.22-6.15,7.01-11.01,8.02-1.47.3-3,.45-4.5.47-4.75.06-9.51.03-14.26.01-.56,0-1.11-.1-1.7-.16Z"/>
        <path class="cls-1" d="M445.7,721.58h-20.64c-.3-.82.14-1.46.35-2.11,2.44-7.53,4.91-15.05,7.38-22.57.67-2.05,1.34-4.1,2.02-6.15.16-.47.37-.92.63-1.54.24.45.45.74.57,1.07,2.21,6.2,9.38,29.31,9.69,31.3Z"/>
        <path class="cls-1" d="M406.58,592.15c-2.65.23-19.01.18-20.68-.07.04-.34.03-.71.12-1.04,1.61-5.71,9.57-29.46,10.34-30.88.06-.02.14-.07.18-.05.06.03.1.11.12.17,3.31,10.36,6.61,20.72,9.91,31.09.06.19,0,.42,0,.78Z"/>
      </g>
    </g>
  </g>
</svg>