<?xml version="1.0" encoding="UTF-8"?>
<svg id="Layer_2" data-name="Layer 2" xmlns="http://www.w3.org/2000/svg" viewBox="0 0 700 789.52">
  <defs>
    <style>
      .cls-1 {
        stroke-width: 0px;
      }
    </style>
  </defs>
  <g id="Artboard_02" data-name="Artboard 02">
    <g id="Layer_18" data-name="Layer 18">
      <g>
        <path class="cls-1" d="M349.06,789.4c-96.3,0-192.6.02-288.9-.06-4.43,0-8.92-.53-13.29-1.33-8.31-1.51-13.9-6.54-15.98-14.69-1.52-5.93-2.36-12.07-3.06-18.17-1.49-12.87-2.7-25.77-4.01-38.66-1.33-13.08-2.65-26.15-3.96-39.23-1.33-13.2-2.66-26.4-3.97-39.61-1.2-12.01-2.39-24.03-3.59-36.05-1.31-13.14-2.64-26.28-3.94-39.43-1.21-12.27-2.38-24.54-3.61-36.8-1.43-14.2-3.05-28.39-4.31-42.61-.45-5.1-.67-10.35,0-15.41,1.34-10.3,7.45-16.52,17.75-18.71,3.6-.77,7.35-1.22,11.03-1.23,34.3-.13,68.6-.16,102.9-.18,42.61-.02,85.22-.03,127.83,0,30.84.02,61.68.09,92.51.2,6.74.02,13.45.1,20.08-1.45,8.88-2.08,16.45-6.42,22.84-12.89,7.82-7.93,15.66-15.83,23.46-23.77,3.31-3.36,6.64-6.72,9.79-10.22,6.87-7.61,15.48-11.31,25.6-11.33,29.71-.06,59.41,0,89.12.04,6.98,0,13.97.1,20.95.11,25.68.05,51.36.08,77.03.13,10.01.02,20.02-.07,30.02.2,3.92.11,7.92.7,11.72,1.68,10.12,2.62,15.39,9.13,16.6,19.53.79,6.82.05,13.56-.57,20.33-1.21,13.28-2.44,26.55-3.61,39.84-1.11,12.65-2.18,25.31-3.24,37.97-1.07,12.79-2.12,25.57-3.19,38.36-1.08,12.91-2.17,25.82-3.25,38.73-1.05,12.53-2.11,25.07-3.16,37.6-1.19,14.23-2.37,28.45-3.57,42.68-1.07,12.78-2.15,25.57-3.24,38.35-1.21,14.16-2.43,28.32-3.65,42.48-.62,7.14-.98,14.32-1.94,21.41-1.62,12.01-9.33,19.63-21.39,21.56-2.78.44-5.63.69-8.44.7-94.98.04-189.95.03-284.93.03h-6.41s0-.08,0-.12Z"/>
        <g>
          <path class="cls-1" d="M240.13,234.15h66.83v205.21h-66.83v-205.21Z"/>
          <path class="cls-1" d="M153.58,439.37h-66.76v-205.2h66.76v205.2Z"/>
          <path class="cls-1" d="M393.46,234.23h66.69v145.92c-3.33,0-6.66-.23-9.94.04-10.81.89-19.78,5.49-27.25,13.4-6.91,7.31-14.12,14.34-21.24,21.46-2.71,2.71-5.54,5.31-8.27,7.92v-188.73Z"/>
          <path class="cls-1" d="M613.37,380.12h-67.11v-145.71h67.11v145.71Z"/>
        </g>
        <g>
          <path class="cls-1" d="M79.59,264.39v87.89c-2.79.22-5.49.27-8.14.66-12.21,1.78-19.14,8.92-20.22,21.21-.59,6.82-.63,13.69-.86,20.53-.29,8.61-.5,17.22-.78,25.83-.08,2.45-.61,2.94-3.1,2.94-6.8.01-13.59.01-20.39,0-2.48,0-2.93-.48-2.93-3.02.02-41.03.04-82.06.07-123.09,0-4.86.5-9.67,2.08-14.31,3.61-10.63,11.36-16.3,22.17-17.94,3.83-.58,7.76-.62,11.65-.68,6.73-.1,13.46-.03,20.44-.03Z"/>
          <path class="cls-1" d="M160.77,352.62v-88.05h71.99v88.05h-71.99Z"/>
          <path class="cls-1" d="M539.05,354h-71.6v-29.25h71.6v29.25Z"/>
          <path class="cls-1" d="M314.11,321.05c3.2.97,6.31,2.34,9.54,2.79,4.82.68,9.74.95,14.62,1,13.52.13,27.04.04,40.56.04,2.37,0,4.74,0,7.23,0v28.33h-71.95v-32.17Z"/>
          <path class="cls-1" d="M650.1,354.56h-29.45v-30.18c.69,0,1.25,0,1.8,0,17.04-.02,34.09-.04,51.13-.06,2.7,0,3.07.36,3.07,3.02,0,12.58,0,25.16,0,37.74,0,2.55-.42,2.97-2.94,2.98-6.92,0-13.84,0-20.76,0-2.41,0-2.85-.46-2.86-2.87,0-3.45,0-6.89,0-10.62Z"/>
        </g>
        <g>
          <path class="cls-1" d="M639.34,156.7H61.05c-.04-.09-.07-.19-.11-.28,2.05-1.13,4.1-2.27,6.16-3.39C160.36,102.35,253.63,51.68,346.85.93c2.26-1.23,3.85-1.25,6.11-.01,94.71,51.56,189.46,103.04,284.21,154.54.58.32,1.14.66,2.17,1.25Z"/>
          <path class="cls-1" d="M60.42,201.9v-26.99h578.97v26.99H60.42Z"/>
          <path class="cls-1" d="M375.32,207.32h102.7v7.89h-102.7v-7.89Z"/>
          <path class="cls-1" d="M631.11,207.31v7.91h-102.54v-7.91h102.54Z"/>
          <path class="cls-1" d="M68.87,215.11v-7.81h102.69v7.81h-102.69Z"/>
          <path class="cls-1" d="M324.93,207.3v7.79h-102.86v-7.79h102.86Z"/>
          <path class="cls-1" d="M618.63,220.88v7.92h-77.69v-7.92h77.69Z"/>
          <path class="cls-1" d="M234.82,228.84v-7.95h77.51v7.95h-77.51Z"/>
          <path class="cls-1" d="M387.86,228.83c-.04-.6-.1-1.08-.1-1.57-.01-2.06,0-4.13,0-6.3h77.7v7.87h-77.6Z"/>
          <path class="cls-1" d="M81.56,228.78v-7.86h77.45v7.86h-77.45Z"/>
        </g>
      </g>
    </g>
  </g>
</svg>