<?xml version="1.0" encoding="UTF-8"?>
<svg id="Layer_2" data-name="Layer 2" xmlns="http://www.w3.org/2000/svg" viewBox="0 0 2000 1072.94">
  <defs>
    <style>
      .cls-1, .cls-2 {
        stroke-width: 0px;
      }

      .cls-2 {
        fill: #231f20;
      }
    </style>
  </defs>
  <g id="Artboard_01" data-name="Artboard 01">
    <g>
      <g>
        <path class="cls-2" d="M1064.4,587.69h-62.17v-144.31h62.17c8.94.13,16.38,1.17,22.32,3.13,10.12,3.33,18.31,9.43,24.57,18.31,5.03,7.18,8.45,14.95,10.28,23.3,1.83,8.36,2.74,16.32,2.74,23.89,0,19.19-3.85,35.44-11.55,48.76-10.44,17.95-26.57,26.92-48.37,26.92ZM1086.82,480.19c-4.63-7.83-13.8-11.75-27.51-11.75h-27.81v94.19h27.81c14.23,0,24.15-7.01,29.76-21.05,3.07-7.7,4.6-16.87,4.6-27.51,0-14.69-2.29-25.98-6.85-33.88Z"/>
        <path class="cls-2" d="M1144.68,443.38h29.96v144.31h-29.96v-144.31Z"/>
        <path class="cls-2" d="M1291.25,584.17c-7.96,4.9-17.75,7.34-29.37,7.34-19.13,0-34.79-6.62-47-19.88-12.73-13.32-19.09-31.53-19.09-54.63s6.43-42.1,19.29-56.2c12.86-14.1,29.86-21.15,51.01-21.15,18.34,0,33.08,4.65,44.2,13.95,11.13,9.3,17.51,20.9,19.14,34.8h-29.67c-2.29-9.85-7.87-16.74-16.74-20.66-4.96-2.15-10.48-3.23-16.55-3.23-11.62,0-21.16,4.39-28.64,13.17-7.47,8.78-11.21,21.98-11.21,39.6s4.05,30.32,12.14,37.69c8.09,7.38,17.3,11.06,27.61,11.06s18.41-2.92,24.87-8.76c6.46-5.84,10.44-13.5,11.94-22.96h-33.39v-24.09h60.11v77.44h-19.97l-3.04-18.01c-5.81,6.85-11.03,11.69-15.67,14.49Z"/>
        <path class="cls-2" d="M1356.36,443.38h29.96v144.31h-29.96v-144.31Z"/>
        <path class="cls-2" d="M1519.28,443.38v25.55h-43.18v118.76h-30.35v-118.76h-43.37v-25.55h116.9Z"/>
        <path class="cls-2" d="M1606.61,558.03h-53.16l-9.99,29.67h-31.53l51.5-144.31h34.07l51.11,144.31h-32.7l-9.3-29.67ZM1598.19,533.16l-18.01-56.79-18.6,56.79h36.62Z"/>
        <path class="cls-2" d="M1666.92,443.38h30.16v118.37h71.47v25.95h-101.63v-144.31Z"/>
        <path class="cls-2" d="M1088.29,828.31v-64.42h-56.39v64.42h-29.86v-144.31h29.86v55.02h56.39v-55.02h29.96v144.31h-29.96Z"/>
        <path class="cls-2" d="M1247.49,765.26h-70.1v37.11h79.89v25.95h-109.36v-144.31h105.84v25.55h-76.37v30.64h70.1v25.06Z"/>
        <path class="cls-2" d="M1342.06,771.72h-31.13v56.59h-29.47v-144.31h70.79c10.12.2,17.9,1.44,23.35,3.72,5.45,2.29,10.07,5.65,13.85,10.08,3.13,3.66,5.61,7.7,7.44,12.14,1.83,4.44,2.74,9.5,2.74,15.18,0,6.85-1.73,13.59-5.19,20.22-3.46,6.62-9.17,11.31-17.13,14.05,6.66,2.68,11.37,6.48,14.15,11.41,2.77,4.93,4.16,12.45,4.16,22.57v9.69c0,6.59.26,11.06.78,13.41.78,3.72,2.61,6.46,5.48,8.22v3.62h-33.19c-.91-3.2-1.57-5.78-1.96-7.73-.78-4.05-1.21-8.19-1.27-12.43l-.2-13.41c-.13-9.2-1.81-15.34-5.04-18.41-3.23-3.07-9.29-4.6-18.16-4.6ZM1360.37,745.48c6.01-2.74,9.01-8.16,9.01-16.25,0-8.75-2.9-14.62-8.71-17.62-3.26-1.7-8.16-2.55-14.69-2.55h-35.05v38.77h34.17c6.79,0,11.88-.78,15.27-2.35Z"/>
        <path class="cls-2" d="M1423.23,683.99h29.96v144.31h-29.96v-144.31Z"/>
        <path class="cls-2" d="M1586.15,683.99v25.55h-43.18v118.76h-30.35v-118.76h-43.37v-25.55h116.9Z"/>
        <path class="cls-2" d="M1673.48,798.64h-53.16l-9.99,29.67h-31.53l51.5-144.31h34.07l51.11,144.31h-32.7l-9.3-29.67ZM1665.06,773.77l-18.01-56.79-18.6,56.79h36.62Z"/>
        <path class="cls-2" d="M1822.3,824.78c-7.96,4.9-17.75,7.34-29.37,7.34-19.13,0-34.79-6.62-47-19.88-12.73-13.32-19.09-31.53-19.09-54.63s6.43-42.1,19.29-56.2c12.86-14.1,29.86-21.15,51.01-21.15,18.34,0,33.07,4.65,44.2,13.95,11.13,9.3,17.51,20.9,19.14,34.8h-29.67c-2.29-9.85-7.87-16.74-16.74-20.66-4.96-2.15-10.48-3.23-16.55-3.23-11.62,0-21.17,4.39-28.64,13.17-7.47,8.78-11.21,21.98-11.21,39.6s4.05,30.32,12.14,37.69c8.09,7.38,17.3,11.06,27.61,11.06s18.41-2.92,24.87-8.76c6.46-5.84,10.44-13.5,11.94-22.96h-33.39v-24.09h60.11v77.44h-19.97l-3.04-18.01c-5.81,6.85-11.03,11.69-15.67,14.49Z"/>
        <path class="cls-2" d="M1990.21,765.26h-70.1v37.11h79.89v25.95h-109.36v-144.31h105.84v25.55h-76.37v30.64h70.1v25.06Z"/>
        <path class="cls-2" d="M1086.72,1039.26h-53.16l-9.99,29.67h-31.53l51.5-144.31h34.07l51.11,144.31h-32.7l-9.3-29.67ZM1078.3,1014.39l-18.01-56.79-18.6,56.79h36.62Z"/>
        <path class="cls-2" d="M1208.32,1012.33h-31.13v56.59h-29.47v-144.31h70.79c10.12.2,17.9,1.44,23.35,3.72,5.45,2.29,10.07,5.65,13.85,10.08,3.13,3.66,5.61,7.7,7.44,12.14,1.83,4.44,2.74,9.5,2.74,15.18,0,6.85-1.73,13.59-5.19,20.22-3.46,6.62-9.17,11.31-17.13,14.05,6.66,2.68,11.37,6.48,14.15,11.41,2.77,4.93,4.16,12.45,4.16,22.57v9.69c0,6.59.26,11.06.78,13.41.78,3.72,2.61,6.46,5.48,8.22v3.62h-33.19c-.91-3.2-1.57-5.78-1.96-7.73-.78-4.05-1.21-8.19-1.27-12.43l-.2-13.41c-.13-9.2-1.81-15.34-5.04-18.41-3.23-3.07-9.29-4.6-18.16-4.6ZM1226.63,986.1c6.01-2.74,9.01-8.16,9.01-16.25,0-8.75-2.9-14.62-8.71-17.62-3.26-1.7-8.16-2.55-14.69-2.55h-35.05v38.77h34.17c6.79,0,11.88-.78,15.27-2.35Z"/>
        <path class="cls-2" d="M1393.66,1058.15c-10.77,9.86-24.54,14.78-41.32,14.78-20.76,0-37.07-6.66-48.95-19.97-11.88-13.38-17.82-31.72-17.82-55.02,0-25.19,6.76-44.61,20.27-58.25,11.75-11.88,26.7-17.82,44.84-17.82,24.28,0,42.04,7.97,53.26,23.89,6.2,8.94,9.53,17.92,9.99,26.92h-30.16c-1.96-6.92-4.47-12.14-7.54-15.67-5.48-6.27-13.61-9.4-24.38-9.4s-19.61,4.42-25.95,13.27c-6.33,8.84-9.5,21.36-9.5,37.55s3.34,28.31,10.04,36.37c6.69,8.06,15.19,12.09,25.5,12.09s18.64-3.46,24.18-10.38c3.07-3.72,5.61-9.3,7.64-16.74h29.86c-2.61,15.73-9.27,28.53-19.97,38.38Z"/>
        <path class="cls-2" d="M1522.7,1068.92v-64.42h-56.4v64.42h-29.86v-144.31h29.86v55.02h56.4v-55.02h29.96v144.31h-29.96Z"/>
        <path class="cls-2" d="M1579.1,924.61h29.96v144.31h-29.96v-144.31Z"/>
        <path class="cls-2" d="M1626.49,924.61h32.21l31.33,109.56,31.62-109.56h31.33l-49.25,144.31h-28.49l-48.76-144.31Z"/>
        <path class="cls-2" d="M1871.35,1005.87h-70.1v37.11h79.89v25.95h-109.36v-144.31h105.84v25.55h-76.37v30.64h70.1v25.06Z"/>
      </g>
      <g>
        <path class="cls-1" d="M474.37,1072.77c-130.87,0-261.74.02-392.6-.08-6.03,0-12.12-.72-18.06-1.8-11.3-2.05-18.89-8.89-21.72-19.97-2.06-8.06-3.2-16.41-4.16-24.7-2.03-17.49-3.67-35.02-5.46-52.53-1.81-17.77-3.6-35.54-5.39-53.31-1.81-17.94-3.61-35.88-5.4-53.83-1.63-16.33-3.24-32.66-4.87-48.99-1.78-17.86-3.58-35.72-5.35-53.58-1.65-16.67-3.23-33.35-4.91-50.02-1.95-19.3-4.15-38.58-5.86-57.9-.62-6.94-.91-14.07-.01-20.94,1.82-14,10.13-22.45,24.13-25.42,4.9-1.04,9.98-1.66,14.98-1.68,46.61-.18,93.23-.22,139.84-.24,57.91-.03,115.81-.04,173.72,0,41.91.03,83.82.13,125.72.28,9.16.03,18.28.14,27.29-1.97,12.07-2.83,22.36-8.72,31.04-17.52,10.63-10.77,21.28-21.51,31.88-32.31,4.49-4.57,9.02-9.13,13.31-13.88,9.33-10.34,21.03-15.37,34.79-15.4,40.37-.09,80.74,0,121.11.05,9.49.01,18.98.14,28.47.16,34.9.07,69.79.11,104.69.18,13.6.03,27.2-.1,40.79.27,5.33.14,10.76.95,15.93,2.29,13.75,3.56,20.92,12.41,22.56,26.54,1.07,9.27.07,18.43-.77,27.62-1.65,18.04-3.31,36.09-4.9,54.14-1.51,17.2-2.96,34.4-4.4,51.6-1.46,17.38-2.88,34.75-4.33,52.13-1.46,17.54-2.95,35.09-4.42,52.63-1.43,17.03-2.87,34.07-4.3,51.1-1.62,19.33-3.23,38.67-4.85,58-1.46,17.37-2.92,34.75-4.4,52.12-1.64,19.24-3.3,38.49-4.96,57.73-.84,9.71-1.33,19.46-2.64,29.1-2.21,16.32-12.68,26.68-29.07,29.29-3.78.6-7.65.94-11.48.95-129.07.05-258.14.04-387.21.04h-8.72c0-.06,0-.11,0-.17Z"/>
        <g>
          <path class="cls-1" d="M326.33,318.2h90.81v278.87h-90.81v-278.87Z"/>
          <path class="cls-1" d="M208.71,597.09h-90.72v-278.87h90.72v278.87Z"/>
          <path class="cls-1" d="M534.7,318.31h90.63v198.3c-4.53,0-9.05-.31-13.51.06-14.68,1.21-26.88,7.46-37.03,18.21-9.39,9.94-19.19,19.49-28.86,29.16-3.69,3.68-7.53,7.22-11.23,10.76v-256.48Z"/>
          <path class="cls-1" d="M833.55,516.57h-91.2v-198.01h91.2v198.01Z"/>
        </g>
        <g>
          <path class="cls-1" d="M108.17,359.29v119.43c-3.79.29-7.45.37-11.06.9-16.59,2.42-26.02,12.12-27.47,28.83-.81,9.27-.86,18.6-1.17,27.9-.39,11.7-.68,23.4-1.06,35.1-.11,3.34-.83,3.99-4.21,4-9.24.01-18.47.02-27.71,0-3.38,0-3.98-.65-3.98-4.11.02-55.76.05-111.51.09-167.27,0-6.61.68-13.15,2.82-19.44,4.91-14.45,15.43-22.15,30.13-24.38,5.21-.79,10.55-.84,15.84-.92,9.14-.14,18.29-.04,27.77-.04Z"/>
          <path class="cls-1" d="M218.49,479.2v-119.65h97.84v119.65h-97.84Z"/>
          <path class="cls-1" d="M732.55,481.08h-97.31v-39.75h97.31v39.75Z"/>
          <path class="cls-1" d="M426.87,436.3c4.35,1.32,8.57,3.17,12.96,3.8,6.56.93,13.23,1.29,19.86,1.36,18.37.17,36.75.06,55.12.06,3.22,0,6.45,0,9.82,0v38.51h-97.77v-43.72Z"/>
          <path class="cls-1" d="M883.46,481.84h-40.02v-41.02c.94,0,1.7,0,2.45,0,23.16-.03,46.33-.06,69.49-.08,3.67,0,4.17.49,4.17,4.11,0,17.1,0,34.19,0,51.29,0,3.46-.57,4.04-3.99,4.04-9.4,0-18.81.01-28.21,0-3.27,0-3.88-.62-3.88-3.9-.01-4.68,0-9.37,0-14.44Z"/>
        </g>
        <g>
          <path class="cls-1" d="M868.85,212.96H82.97c-.05-.13-.1-.26-.15-.39,2.79-1.54,5.58-3.09,8.38-4.61C217.93,139.09,344.67,70.23,471.36,1.26c3.07-1.67,5.23-1.7,8.31-.02,128.71,70.07,257.48,140.03,386.23,210.01.79.43,1.55.89,2.94,1.7Z"/>
          <path class="cls-1" d="M82.11,274.38v-36.68h786.8v36.68H82.11Z"/>
          <path class="cls-1" d="M510.05,281.74h139.57v10.73h-139.57v-10.73Z"/>
          <path class="cls-1" d="M857.66,281.73v10.75h-139.35v-10.75h139.35Z"/>
          <path class="cls-1" d="M93.59,292.33v-10.62h139.55v10.62H93.59Z"/>
          <path class="cls-1" d="M441.57,281.71v10.59h-139.78v-10.59h139.78Z"/>
          <path class="cls-1" d="M840.71,300.17v10.76h-105.58v-10.76h105.58Z"/>
          <path class="cls-1" d="M319.11,310.98v-10.8h105.33v10.8h-105.33Z"/>
          <path class="cls-1" d="M527.08,310.98c-.05-.81-.13-1.47-.14-2.14-.01-2.8,0-5.61,0-8.56h105.59v10.7h-105.45Z"/>
          <path class="cls-1" d="M110.84,310.9v-10.68h105.25v10.68h-105.25Z"/>
        </g>
      </g>
    </g>
  </g>
</svg>