<?xml version="1.0" encoding="UTF-8"?>
<svg id="Layer_2" data-name="Layer 2" xmlns="http://www.w3.org/2000/svg" viewBox="0 0 500 500">
  <defs>
    <style>
      .cls-1 {
        fill: #c44d9c;
      }

      .cls-1, .cls-2 {
        stroke-width: 0px;
      }

      .cls-2 {
        fill: #e7e977;
      }
    </style>
  </defs>
  <g id="Artboard_07" data-name="Artboard 07">
    <g>
      <circle class="cls-2" cx="250" cy="250" r="250"/>
      <g>
        <g>
          <path class="cls-1" d="M262.88,260.24h-12.43v-28.86h12.43c1.79.03,3.28.23,4.46.63,2.02.67,3.66,1.89,4.91,3.66,1.01,1.44,1.69,2.99,2.06,4.66.37,1.67.55,3.26.55,4.78,0,3.84-.77,7.09-2.31,9.75-2.09,3.59-5.31,5.38-9.67,5.38ZM267.36,238.74c-.93-1.57-2.76-2.35-5.5-2.35h-5.56v18.84h5.56c2.85,0,4.83-1.4,5.95-4.21.61-1.54.92-3.37.92-5.5,0-2.94-.46-5.2-1.37-6.78Z"/>
          <path class="cls-1" d="M278.94,231.38h5.99v28.86h-5.99v-28.86Z"/>
          <path class="cls-1" d="M308.25,259.54c-1.59.98-3.55,1.47-5.87,1.47-3.83,0-6.96-1.32-9.4-3.98-2.55-2.66-3.82-6.31-3.82-10.93s1.29-8.42,3.86-11.24c2.57-2.82,5.97-4.23,10.2-4.23,3.67,0,6.62.93,8.84,2.79,2.23,1.86,3.5,4.18,3.83,6.96h-5.93c-.46-1.97-1.57-3.35-3.35-4.13-.99-.43-2.1-.65-3.31-.65-2.32,0-4.23.88-5.73,2.63-1.49,1.76-2.24,4.4-2.24,7.92s.81,6.06,2.43,7.54c1.62,1.48,3.46,2.21,5.52,2.21s3.68-.58,4.97-1.75c1.29-1.17,2.09-2.7,2.39-4.59h-6.68v-4.82h12.02v15.49h-3.99l-.61-3.6c-1.16,1.37-2.21,2.34-3.13,2.9Z"/>
          <path class="cls-1" d="M321.27,231.38h5.99v28.86h-5.99v-28.86Z"/>
          <path class="cls-1" d="M353.86,231.38v5.11h-8.64v23.75h-6.07v-23.75h-8.67v-5.11h23.38Z"/>
          <path class="cls-1" d="M371.32,254.31h-10.63l-2,5.93h-6.31l10.3-28.86h6.81l10.22,28.86h-6.54l-1.86-5.93ZM369.64,249.34l-3.6-11.36-3.72,11.36h7.32Z"/>
          <path class="cls-1" d="M383.38,231.38h6.03v23.67h14.29v5.19h-20.33v-28.86Z"/>
          <path class="cls-1" d="M267.66,308.37v-12.88h-11.28v12.88h-5.97v-28.86h5.97v11h11.28v-11h5.99v28.86h-5.99Z"/>
          <path class="cls-1" d="M299.5,295.76h-14.02v7.42h15.98v5.19h-21.87v-28.86h21.17v5.11h-15.27v6.13h14.02v5.01Z"/>
          <path class="cls-1" d="M318.41,297.05h-6.23v11.32h-5.89v-28.86h14.16c2.02.04,3.58.29,4.67.74,1.09.46,2.01,1.13,2.77,2.02.63.73,1.12,1.54,1.49,2.43.37.89.55,1.9.55,3.04,0,1.37-.35,2.72-1.04,4.04-.69,1.32-1.83,2.26-3.43,2.81,1.33.54,2.27,1.3,2.83,2.28.55.99.83,2.49.83,4.51v1.94c0,1.32.05,2.21.16,2.68.16.74.52,1.29,1.1,1.64v.72h-6.64c-.18-.64-.31-1.16-.39-1.55-.16-.81-.24-1.64-.25-2.49l-.04-2.68c-.03-1.84-.36-3.07-1.01-3.68-.65-.61-1.86-.92-3.63-.92ZM322.07,291.8c1.2-.55,1.8-1.63,1.8-3.25,0-1.75-.58-2.92-1.74-3.52-.65-.34-1.63-.51-2.94-.51h-7.01v7.75h6.83c1.36,0,2.38-.16,3.05-.47Z"/>
          <path class="cls-1" d="M334.65,279.51h5.99v28.86h-5.99v-28.86Z"/>
          <path class="cls-1" d="M367.23,279.51v5.11h-8.64v23.75h-6.07v-23.75h-8.67v-5.11h23.38Z"/>
          <path class="cls-1" d="M384.7,302.43h-10.63l-2,5.93h-6.31l10.3-28.86h6.81l10.22,28.86h-6.54l-1.86-5.93ZM383.01,297.46l-3.6-11.36-3.72,11.36h7.32Z"/>
          <path class="cls-1" d="M414.46,307.66c-1.59.98-3.55,1.47-5.87,1.47-3.83,0-6.96-1.32-9.4-3.98-2.55-2.66-3.82-6.31-3.82-10.93s1.29-8.42,3.86-11.24c2.57-2.82,5.97-4.23,10.2-4.23,3.67,0,6.61.93,8.84,2.79,2.23,1.86,3.5,4.18,3.83,6.96h-5.93c-.46-1.97-1.57-3.35-3.35-4.13-.99-.43-2.1-.65-3.31-.65-2.32,0-4.23.88-5.73,2.63-1.49,1.76-2.24,4.4-2.24,7.92s.81,6.06,2.43,7.54c1.62,1.48,3.46,2.21,5.52,2.21s3.68-.58,4.97-1.75c1.29-1.17,2.09-2.7,2.39-4.59h-6.68v-4.82h12.02v15.49h-3.99l-.61-3.6c-1.16,1.37-2.21,2.34-3.13,2.9Z"/>
          <path class="cls-1" d="M448.04,295.76h-14.02v7.42h15.98v5.19h-21.87v-28.86h21.17v5.11h-15.27v6.13h14.02v5.01Z"/>
          <path class="cls-1" d="M267.34,350.56h-10.63l-2,5.93h-6.31l10.3-28.86h6.81l10.22,28.86h-6.54l-1.86-5.93ZM265.66,345.58l-3.6-11.36-3.72,11.36h7.32Z"/>
          <path class="cls-1" d="M291.66,345.17h-6.23v11.32h-5.89v-28.86h14.16c2.02.04,3.58.29,4.67.74,1.09.46,2.01,1.13,2.77,2.02.63.73,1.12,1.54,1.49,2.43.37.89.55,1.9.55,3.04,0,1.37-.35,2.72-1.04,4.04-.69,1.32-1.83,2.26-3.43,2.81,1.33.54,2.27,1.3,2.83,2.28.55.99.83,2.49.83,4.51v1.94c0,1.32.05,2.21.16,2.68.16.74.52,1.29,1.1,1.64v.72h-6.64c-.18-.64-.31-1.16-.39-1.55-.16-.81-.24-1.64-.25-2.49l-.04-2.68c-.03-1.84-.36-3.07-1.01-3.68-.65-.61-1.86-.92-3.63-.92ZM295.33,339.93c1.2-.55,1.8-1.63,1.8-3.25,0-1.75-.58-2.92-1.74-3.52-.65-.34-1.63-.51-2.94-.51h-7.01v7.75h6.83c1.36,0,2.38-.16,3.05-.47Z"/>
          <path class="cls-1" d="M328.73,354.34c-2.15,1.97-4.91,2.96-8.26,2.96-4.15,0-7.41-1.33-9.79-3.99-2.38-2.68-3.56-6.34-3.56-11,0-5.04,1.35-8.92,4.05-11.65,2.35-2.38,5.34-3.56,8.97-3.56,4.86,0,8.41,1.59,10.65,4.78,1.24,1.79,1.91,3.58,2,5.38h-6.03c-.39-1.38-.89-2.43-1.51-3.13-1.1-1.25-2.72-1.88-4.88-1.88s-3.92.88-5.19,2.65c-1.27,1.77-1.9,4.27-1.9,7.51s.67,5.66,2.01,7.27c1.34,1.61,3.04,2.42,5.1,2.42s3.73-.69,4.84-2.08c.61-.74,1.12-1.86,1.53-3.35h5.97c-.52,3.15-1.85,5.71-3.99,7.68Z"/>
          <path class="cls-1" d="M354.54,356.49v-12.88h-11.28v12.88h-5.97v-28.86h5.97v11h11.28v-11h5.99v28.86h-5.99Z"/>
          <path class="cls-1" d="M365.82,327.63h5.99v28.86h-5.99v-28.86Z"/>
          <path class="cls-1" d="M375.3,327.63h6.44l6.27,21.91,6.32-21.91h6.27l-9.85,28.86h-5.7l-9.75-28.86Z"/>
          <path class="cls-1" d="M424.27,343.88h-14.02v7.42h15.98v5.19h-21.87v-28.86h21.17v5.11h-15.27v6.13h14.02v5.01Z"/>
        </g>
        <g>
          <path class="cls-1" d="M144.87,357.26c-26.17,0-52.35,0-78.52-.02-1.21,0-2.42-.14-3.61-.36-2.26-.41-3.78-1.78-4.34-3.99-.41-1.61-.64-3.28-.83-4.94-.41-3.5-.73-7-1.09-10.51-.36-3.55-.72-7.11-1.08-10.66-.36-3.59-.72-7.18-1.08-10.77-.33-3.27-.65-6.53-.97-9.8-.36-3.57-.72-7.14-1.07-10.72-.33-3.33-.65-6.67-.98-10-.39-3.86-.83-7.72-1.17-11.58-.12-1.39-.18-2.81,0-4.19.36-2.8,2.03-4.49,4.83-5.08.98-.21,2-.33,3-.34,9.32-.04,18.65-.04,27.97-.05,11.58,0,23.16,0,34.74,0,8.38,0,16.76.03,25.14.06,1.83,0,3.66.03,5.46-.39,2.41-.57,4.47-1.74,6.21-3.5,2.13-2.15,4.26-4.3,6.38-6.46.9-.91,1.8-1.83,2.66-2.78,1.87-2.07,4.21-3.07,6.96-3.08,8.07-.02,16.15,0,24.22.01,1.9,0,3.8.03,5.69.03,6.98.01,13.96.02,20.94.04,2.72,0,5.44-.02,8.16.05,1.07.03,2.15.19,3.19.46,2.75.71,4.18,2.48,4.51,5.31.21,1.85.01,3.69-.15,5.52-.33,3.61-.66,7.22-.98,10.83-.3,3.44-.59,6.88-.88,10.32-.29,3.48-.58,6.95-.87,10.43-.29,3.51-.59,7.02-.88,10.53-.29,3.41-.57,6.81-.86,10.22-.32,3.87-.65,7.73-.97,11.6-.29,3.47-.58,6.95-.88,10.42-.33,3.85-.66,7.7-.99,11.55-.17,1.94-.27,3.89-.53,5.82-.44,3.26-2.54,5.34-5.81,5.86-.76.12-1.53.19-2.3.19-25.81,0-51.63,0-77.44,0h-1.74s0-.02,0-.03Z"/>
          <g>
            <path class="cls-1" d="M115.27,206.35h18.16v55.77h-18.16v-55.77Z"/>
            <path class="cls-1" d="M91.74,262.12h-18.14v-55.77h18.14v55.77Z"/>
            <path class="cls-1" d="M156.94,206.37h18.13v39.66c-.91,0-1.81-.06-2.7.01-2.94.24-5.38,1.49-7.41,3.64-1.88,1.99-3.84,3.9-5.77,5.83-.74.74-1.51,1.44-2.25,2.15v-51.3Z"/>
            <path class="cls-1" d="M216.71,246.02h-18.24v-39.6h18.24v39.6Z"/>
          </g>
          <g>
            <path class="cls-1" d="M71.63,214.56v23.89c-.76.06-1.49.07-2.21.18-3.32.48-5.2,2.42-5.49,5.77-.16,1.85-.17,3.72-.23,5.58-.08,2.34-.14,4.68-.21,7.02-.02.67-.17.8-.84.8-1.85,0-3.69,0-5.54,0-.68,0-.8-.13-.8-.82,0-11.15,0-22.3.02-33.45,0-1.32.14-2.63.56-3.89.98-2.89,3.09-4.43,6.03-4.88,1.04-.16,2.11-.17,3.17-.18,1.83-.03,3.66,0,5.55,0Z"/>
            <path class="cls-1" d="M93.7,238.55v-23.93h19.57v23.93h-19.57Z"/>
            <path class="cls-1" d="M196.51,238.92h-19.46v-7.95h19.46v7.95Z"/>
            <path class="cls-1" d="M135.37,229.97c.87.26,1.71.63,2.59.76,1.31.19,2.65.26,3.97.27,3.67.03,7.35.01,11.02.01.64,0,1.29,0,1.96,0v7.7h-19.55v-8.74Z"/>
            <path class="cls-1" d="M226.69,239.07h-8v-8.2c.19,0,.34,0,.49,0,4.63,0,9.27-.01,13.9-.02.73,0,.83.1.83.82,0,3.42,0,6.84,0,10.26,0,.69-.11.81-.8.81-1.88,0-3.76,0-5.64,0-.65,0-.78-.12-.78-.78,0-.94,0-1.87,0-2.89Z"/>
          </g>
          <g>
            <path class="cls-1" d="M223.77,185.3H66.59s-.02-.05-.03-.08c.56-.31,1.12-.62,1.68-.92,25.35-13.77,50.7-27.55,76.03-41.34.61-.33,1.05-.34,1.66,0,25.74,14.01,51.5,28.01,77.25,42,.16.09.31.18.59.34Z"/>
            <path class="cls-1" d="M66.42,197.58v-7.34h157.36v7.34H66.42Z"/>
            <path class="cls-1" d="M152.01,199.05h27.91v2.15h-27.91v-2.15Z"/>
            <path class="cls-1" d="M221.53,199.05v2.15h-27.87v-2.15h27.87Z"/>
            <path class="cls-1" d="M68.72,201.17v-2.12h27.91v2.12h-27.91Z"/>
            <path class="cls-1" d="M138.31,199.05v2.12h-27.96v-2.12h27.96Z"/>
            <path class="cls-1" d="M218.14,202.74v2.15h-21.12v-2.15h21.12Z"/>
            <path class="cls-1" d="M113.82,204.9v-2.16h21.07v2.16h-21.07Z"/>
            <path class="cls-1" d="M155.42,204.9c-.01-.16-.03-.29-.03-.43,0-.56,0-1.12,0-1.71h21.12v2.14h-21.09Z"/>
            <path class="cls-1" d="M72.17,204.89v-2.14h21.05v2.14h-21.05Z"/>
          </g>
        </g>
      </g>
    </g>
  </g>
</svg>